<?xml version="1.0" encoding="utf-8"?>
<!-- Generator: Adobe Illustrator 22.0.1, SVG Export Plug-In . SVG Version: 6.00 Build 0)  -->
<svg version="1.1" id="Calque_1" xmlns="http://www.w3.org/2000/svg" xmlns:xlink="http://www.w3.org/1999/xlink" x="0px" y="0px"
	 viewBox="0 0 1920 1080" style="enable-background:new 0 0 1920 1080;" xml:space="preserve">
<style type="text/css">
	.st0{fill:#3FA9F5;stroke:#BDCCD4;stroke-miterlimit:10;}
	.st1{fill:none;}
	.st2{opacity:0.5;}
	.st3{fill:#F2F2F2;}
	.st4{fill:#CCCCCC;}
	.st5{fill:none;stroke:#F7931E;stroke-width:3;stroke-miterlimit:10;}
	.st6{fill:none;stroke:#333333;stroke-miterlimit:10;}
	.st7{fill:#CCCCCC;stroke:#B3B3B3;stroke-width:0.75;stroke-miterlimit:10;}
	.st8{fill:#3FA9F5;stroke:#BDCCD4;stroke-width:2;stroke-miterlimit:10;}
	.st9{fill:#3FA9F5;}
</style>
<rect x="1691.5" y="1.5" class="st0" width="3" height="531"/>
<path class="st1" d="M221,188c0,4.4,0,8,0,8"/>
<g id="XMLID_1_" class="st2">
	<g>
		<path class="st3" d="M288.5,422.7c8.6,14.1,13.5,30.6,13.5,48.3c0,51.4-41.6,93-93,93s-93-41.6-93-93c0-17.7,4.9-34.2,13.5-48.3
			l0.5,0.3c9.1,0,17.5-10.1,24.1-27.1c15.4-11.3,34.4-17.9,54.9-17.9s39.5,6.7,54.9,17.9c6.6,16.9,15,27.1,24.1,27.1L288.5,422.7z"
			/>
		<path class="st3" d="M288.5,422.7L288,423c-9.1,0-17.5-10.1-24.1-27.1C273.8,403.1,282.1,412.2,288.5,422.7z"/>
		<path class="st3" d="M250,304.9c0.1,36.7,5.5,69.4,13.9,91.1C248.5,384.7,229.5,378,209,378s-39.5,6.7-54.9,17.9
			c8.4-21.8,13.8-54.9,13.9-91.9h0.5c0,3,18.4,5.5,41,5.5C230,309.5,246.9,307.5,250,304.9z"/>
		<path d="M250,304.9c-3.1,2.6-20,4.6-40.5,4.6c-22.6,0-41-2.5-41-5.5s18.4-5.5,41-5.5s41,2.5,41,5.5
			C250.5,304.3,250.3,304.6,250,304.9z"/>
		<path class="st3" d="M129.5,422.7c6.4-10.5,14.7-19.6,24.6-26.8c-6.6,16.9-15,27.1-24.1,27.1L129.5,422.7z"/>
	</g>
	<g>
	</g>
</g>
<rect x="196" y="309" class="st4" width="27" height="40"/>
<line class="st5" x1="190" y1="402" x2="190" y2="520"/>
<line class="st5" x1="219.5" y1="402" x2="219.5" y2="520"/>
<line class="st5" x1="199.5" y1="402" x2="199.5" y2="520"/>
<line class="st5" x1="229.5" y1="402" x2="229.5" y2="520"/>
<line class="st5" x1="189.5" y1="401.5" x2="199.5" y2="519.5"/>
<line class="st5" x1="229.5" y1="402.5" x2="219.5" y2="520.5"/>
<line class="st6" x1="188.5" y1="520.5" x2="230.5" y2="520.5"/>
<ellipse class="st7" cx="209.5" cy="301" rx="41" ry="5.5"/>
<ellipse class="st8" cx="209" cy="298" rx="43" ry="6"/>
<rect x="168" y="288" class="st9" width="82" height="10"/>
<ellipse class="st8" cx="209" cy="290" rx="43" ry="6"/>
<rect x="168" y="268" class="st9" width="82" height="22"/>
<rect x="199" y="221" class="st0" width="18" height="10"/>
<ellipse class="st0" cx="208.8" cy="251" rx="40.3" ry="23"/>
<ellipse class="st8" cx="209" cy="272" rx="43" ry="6"/>
<rect x="168" y="251" class="st9" width="82" height="21"/>
<ellipse class="st8" cx="209" cy="254" rx="43" ry="6"/>
<rect x="171" y="247" class="st9" width="75" height="7"/>
<rect x="169" y="250" class="st9" width="8" height="5"/>
<rect x="206" y="350" class="st4" width="7" height="170"/>
<rect x="240.4" y="249" class="st9" width="8" height="5"/>
<rect x="206.5" y="-0.5" class="st0" width="3" height="221"/>
<line class="st5" x1="209.5" y1="401.5" x2="219.5" y2="519.5"/>
<line class="st5" x1="209.5" y1="401.5" x2="199.5" y2="520.5"/>
<line class="st5" x1="209.5" y1="402" x2="209.5" y2="520"/>
<circle class="st4" cx="209.5" cy="349.5" r="13.5"/>
<line class="st6" x1="189" y1="401.5" x2="231" y2="401.5"/>
<path class="st1" d="M1706,492c0,4.4,0,8,0,8"/>
<g id="XMLID_2_" class="st2">
	<g>
		<path class="st3" d="M1773.5,726.7c8.6,14.1,13.5,30.6,13.5,48.3c0,51.4-41.6,93-93,93s-93-41.6-93-93c0-17.7,4.9-34.2,13.5-48.3
			l0.5,0.3c9.2,0,17.5-10.1,24.1-27.1c15.4-11.3,34.4-17.9,54.9-17.9s39.5,6.7,54.9,17.9c6.6,16.9,14.9,27.1,24.1,27.1L1773.5,726.7
			z"/>
		<path class="st3" d="M1773.5,726.7l-0.5,0.3c-9.2,0-17.5-10.1-24.1-27.1C1758.8,707.1,1767.1,716.2,1773.5,726.7z"/>
		<path class="st3" d="M1735,608.9c0.1,36.7,5.5,69.4,13.9,91.1c-15.4-11.3-34.4-17.9-54.9-17.9s-39.5,6.7-54.9,17.9
			c8.5-21.8,13.8-54.9,13.9-91.9h0.5c0,3,18.4,5.5,41,5.5C1715,613.5,1731.9,611.5,1735,608.9z"/>
		<path d="M1694.5,602.5c22.6,0,41,2.5,41,5.5c0,0.3-0.2,0.6-0.5,0.9c-3.1,2.6-20,4.6-40.5,4.6c-22.6,0-41-2.5-41-5.5
			S1671.9,602.5,1694.5,602.5z"/>
		<path class="st3" d="M1614.5,726.7c6.4-10.5,14.7-19.6,24.6-26.8c-6.6,16.9-14.9,27.1-24.1,27.1L1614.5,726.7z"/>
	</g>
	<g>
	</g>
</g>
<rect x="1681" y="613" class="st4" width="27" height="40"/>
<line class="st5" x1="1675" y1="706" x2="1675" y2="824"/>
<line class="st5" x1="1704.5" y1="706" x2="1704.5" y2="824"/>
<line class="st5" x1="1684.5" y1="706" x2="1684.5" y2="824"/>
<line class="st5" x1="1714.5" y1="706" x2="1714.5" y2="824"/>
<line class="st5" x1="1674.5" y1="705.5" x2="1684.5" y2="823.5"/>
<line class="st5" x1="1714.5" y1="706.5" x2="1704.5" y2="824.5"/>
<line class="st6" x1="1673.5" y1="824.5" x2="1715.5" y2="824.5"/>
<ellipse class="st7" cx="1694.5" cy="605" rx="41" ry="5.5"/>
<ellipse class="st8" cx="1694" cy="602" rx="43" ry="6"/>
<rect x="1653" y="592" class="st9" width="82" height="10"/>
<ellipse class="st8" cx="1694" cy="594" rx="43" ry="6"/>
<rect x="1653" y="572" class="st9" width="82" height="22"/>
<rect x="1684" y="525" class="st0" width="18" height="10"/>
<ellipse class="st0" cx="1693.8" cy="555" rx="40.3" ry="23"/>
<ellipse class="st8" cx="1694" cy="576" rx="43" ry="6"/>
<rect x="1653" y="555" class="st9" width="82" height="21"/>
<ellipse class="st8" cx="1694" cy="558" rx="43" ry="6"/>
<rect x="1656" y="551" class="st9" width="75" height="7"/>
<rect x="1654" y="554" class="st9" width="8" height="5"/>
<rect x="1691" y="654" class="st4" width="7" height="170"/>
<rect x="1725.4" y="553" class="st9" width="8" height="5"/>
<line class="st5" x1="1694.5" y1="705.5" x2="1704.5" y2="823.5"/>
<line class="st5" x1="1694.5" y1="705.5" x2="1684.5" y2="824.5"/>
<line class="st5" x1="1694.5" y1="706" x2="1694.5" y2="824"/>
<circle class="st4" cx="1694.5" cy="653.5" r="13.5"/>
<line class="st6" x1="1674" y1="705.5" x2="1716" y2="705.5"/>
</svg>
