<?xml version="1.0" encoding="utf-8"?>
<!-- Generator: Adobe Illustrator 22.0.1, SVG Export Plug-In . SVG Version: 6.00 Build 0)  -->
<svg version="1.1" id="Calque_1" xmlns="http://www.w3.org/2000/svg" xmlns:xlink="http://www.w3.org/1999/xlink" x="0px" y="0px"
	 viewBox="0 0 480.3 729.3" style="enable-background:new 0 0 480.3 729.3;" xml:space="preserve">
<style type="text/css">
	.st0{fill:#FFFFFF;}
	.st1{fill:#3FA9F5;}
	.st2{fill:#F0F0F0;}
	.st3{fill:#FFE65F;}
	.st4{fill:#808080;}
	.st5{fill:#808080;stroke:#808080;stroke-miterlimit:10;}
</style>
<g>
	<rect x="24.5" y="16.5" class="st0" width="354" height="610"/>
	<path d="M378,17v609H25V17H378 M379,16H24v611h355V16L379,16z"/>
</g>
<g>
	<rect x="51" y="39.1" width="300" height="13.8"/>
</g>
<g>
	<rect x="51" y="69" class="st1" width="300" height="58"/>
</g>
<g>
	<rect x="50.5" y="143.5" class="st2" width="299" height="457"/>
	<path d="M349,144v456H51V144H349 M350,143H50v458h300V143L350,143z"/>
</g>
<g>
	<circle class="st0" cx="95.5" cy="215.5" r="10"/>
	<path d="M95.5,206c5.2,0,9.5,4.3,9.5,9.5s-4.3,9.5-9.5,9.5s-9.5-4.3-9.5-9.5S90.3,206,95.5,206 M95.5,205
		c-5.8,0-10.5,4.7-10.5,10.5S89.7,226,95.5,226s10.5-4.7,10.5-10.5S101.3,205,95.5,205L95.5,205z"/>
</g>
<g>
	<circle class="st0" cx="95.5" cy="272.5" r="10"/>
	<path d="M95.5,263c5.2,0,9.5,4.3,9.5,9.5s-4.3,9.5-9.5,9.5s-9.5-4.3-9.5-9.5S90.3,263,95.5,263 M95.5,262
		c-5.8,0-10.5,4.7-10.5,10.5S89.7,283,95.5,283s10.5-4.7,10.5-10.5S101.3,262,95.5,262L95.5,262z"/>
</g>
<g>
	<circle class="st0" cx="95.5" cy="329.5" r="10"/>
	<path d="M95.5,320c5.2,0,9.5,4.3,9.5,9.5s-4.3,9.5-9.5,9.5s-9.5-4.3-9.5-9.5S90.3,320,95.5,320 M95.5,319
		c-5.8,0-10.5,4.7-10.5,10.5S89.7,340,95.5,340s10.5-4.7,10.5-10.5S101.3,319,95.5,319L95.5,319z"/>
</g>
<rect x="423.5" y="143" class="st3" width="17" height="511"/>
<rect x="423" y="136.5" class="st4" width="18" height="7"/>
<path class="st5" d="M444.3,711.5h-25.5c-5.7,0-10.2-4.6-10.2-10.2v-53.5c0-5.7,4.6-10.2,10.2-10.2h25.5c5.7,0,10.2,4.6,10.2,10.2
	v53.5C454.5,706.9,449.9,711.5,444.3,711.5z"/>
<rect x="423.5" y="146.6" width="12" height="0.9"/>
<rect x="423.5" y="166.6" width="12" height="0.9"/>
<rect x="423.5" y="186.6" width="12" height="0.9"/>
<rect x="423.5" y="206.6" width="12" height="0.9"/>
<rect x="423.5" y="226.6" width="12" height="0.9"/>
<rect x="423.5" y="246.6" width="12" height="0.9"/>
<line x1="423.5" y1="246.6" x2="435.5" y2="246.6"/>
<line x1="435.5" y1="267.5" x2="423.5" y2="267.5"/>
<rect x="423.5" y="286.5" width="12" height="0.9"/>
<line x1="435.5" y1="307.5" x2="423.5" y2="307.5"/>
<rect x="423.5" y="266.5" width="12" height="0.9"/>
<rect x="423.5" y="306.5" width="12" height="0.9"/>
<rect x="423.5" y="326.5" width="12" height="0.9"/>
<rect x="423.5" y="366.5" width="12" height="0.9"/>
<rect x="423.5" y="346.5" width="12" height="0.9"/>
<rect x="423.5" y="386.5" width="12" height="0.9"/>
<rect x="423.5" y="406.5" width="12" height="0.9"/>
<rect x="423.5" y="426.5" width="12" height="0.9"/>
<rect x="423.5" y="446.5" width="12" height="0.9"/>
<rect x="423.5" y="466.5" width="12" height="0.9"/>
<rect x="423.5" y="486.5" width="12" height="0.9"/>
<rect x="423.5" y="506.5" width="12" height="0.9"/>
<rect x="423.5" y="526.5" width="12" height="0.9"/>
<rect x="423.5" y="546.5" width="12" height="0.9"/>
<rect x="423.5" y="566.5" width="12" height="0.9"/>
<rect x="423.5" y="586.5" width="12" height="0.9"/>
<rect x="423.5" y="606.5" width="12" height="0.9"/>
<rect x="423.5" y="626.5" width="12" height="0.9"/>
<g>
	<rect x="59.5" y="88.1" transform="matrix(0.7071 -0.7071 0.7071 0.7071 -42.3442 76.7721)" class="st0" width="24" height="2.8"/>
</g>
<g>
	
		<rect x="69.1" y="93.4" transform="matrix(0.7071 -0.7071 0.7071 0.7071 -53.9434 80.7304)" class="st0" width="2.8" height="24.1"/>
</g>
<g>
	<rect x="71.5" y="407.5" class="st0" width="67" height="67"/>
	<path d="M138,408v66H72v-66H138 M139,407H71v68h68V407L139,407z"/>
</g>
<g>
	<rect x="260.5" y="407.5" class="st0" width="67" height="67"/>
	<path d="M327,408v66h-66v-66H327 M328,407h-68v68h68V407L328,407z"/>
</g>
<g>
	<rect x="166.5" y="407.5" class="st0" width="67" height="67"/>
	<path d="M233,408v66h-66v-66H233 M234,407h-68v68h68V407L234,407z"/>
</g>
<g>
	
		<rect x="175.2" y="491.3" transform="matrix(0.7071 -0.7071 0.7071 0.7071 -294.2971 273.504)" class="st1" width="15.6" height="1.4"/>
</g>
<g>
	
		<rect x="182.3" y="494.2" transform="matrix(0.7071 -0.7071 0.7071 0.7071 -301.3681 276.4329)" class="st1" width="1.4" height="15.6"/>
</g>
<g>
	
		<rect x="208.2" y="501.3" transform="matrix(0.7071 -0.7071 0.7071 0.7071 -291.7027 299.7675)" class="st1" width="15.6" height="1.4"/>
</g>
<g>
	
		<rect x="215.3" y="484.2" transform="matrix(0.7071 -0.7071 0.7071 0.7071 -284.6316 296.8385)" class="st1" width="1.4" height="15.6"/>
</g>
</svg>
